<svg xmlns="http://www.w3.org/2000/svg" xmlns:xlink="http://www.w3.org/1999/xlink" width="48" height="48" version="1.0"><defs><linearGradient id="a" x1="45.448" x2="45.448" y1="92.54" y2="7.017" gradientTransform="scale(1.0058652 .994169)" gradientUnits="userSpaceOnUse"><stop offset="0"/><stop offset="1" stop-opacity=".588"/></linearGradient><linearGradient id="b"><stop offset="0" stop-color="#fff"/><stop offset="1" stop-color="#fff" stop-opacity="0"/></linearGradient><filter id="c" color-interpolation-filters="sRGB"><feGaussianBlur stdDeviation="1.71"/></filter><filter id="d" width="1.384" height="1.384" x="-.192" y="-.192" color-interpolation-filters="sRGB"><feGaussianBlur stdDeviation="5.28"/></filter><linearGradient id="e" x1="48" x2="48" y1="20.221" y2="138.661" gradientUnits="userSpaceOnUse" xlink:href="#b"/><clipPath id="f"><rect width="84" height="84" x="6" y="6" fill="#fff" rx="6" ry="6"/></clipPath></defs><g display="none" transform="translate(-6 -42)"><rect width="86" height="85" x="5" y="7" fill="url(#a)" filter="url(#c)" opacity=".9" rx="6" ry="6"/></g><path fill="#b8bb26" d="M8.571429 6C7.146857 6 6 7.146857 6 8.571429L6 39.428571C6 40.853143 7.146857 42 8.571429 42L39.428571 42C40.853143 42 42 40.853143 42 39.428571L42 8.571429C42 7.146857 40.853143 6 39.428571 6L8.571429 6Zm5.142857 4.285714a3.428571 3.428571 0 0 1 0 6.857143 3.428571 3.428571 0 1 1 0-6.857143zm20.571429 0a3.428571 3.428571 0 0 1 0 6.857143 3.428571 3.428571 0 1 1 0-6.857143zM24 20.571429a3.428571 3.428571 0 0 1 0 6.857143 3.428571 3.428571 0 1 1 0-6.857143zM13.714286 30.857143a3.428571 3.428571 0 0 1 0 6.857143 3.428571 3.428571 0 1 1 0-6.857143zm20.571429 0a3.428571 3.428571 0 0 1 0 6.857143 3.428571 3.428571 0 1 1 0-6.857143z"/><g display="none" transform="translate(-6 -42)"><rect width="66" height="66" x="15" y="15" fill="url(#e)" stroke="#fff" stroke-linecap="round" stroke-width=".5" clip-path="url(#f)" filter="url(#d)" opacity=".1" rx="12" ry="12"/></g></svg>