<svg xmlns="http://www.w3.org/2000/svg" xmlns:xlink="http://www.w3.org/1999/xlink" width="48" height="48" version="1.1" viewBox="0 0 48 48.302"><defs><radialGradient id="a" cx="77.914" cy="-48.545" r="146" gradientTransform="matrix(1.50895 0 0 1.35822 -39.03 76.958)" gradientUnits="userSpaceOnUse"><stop stop-color="#dddce9"/><stop offset=".37" stop-color="#5664a3"/><stop offset="1"/></radialGradient></defs><g transform="matrix(.13529941 0 0 .13529941 3.705089 13.326991)"><ellipse cx="150" cy="80" fill="#6c7eb7" stroke="url(#a)" stroke-width="5.5" rx="146" ry="76"/><path id="b" fill-rule="evenodd" stroke="#fff" stroke-linejoin="round" stroke-width="2" d="m45 125l16-81 37 0c16 1 24 9 24 23 0 24-19 38-36 37l-18 0-4 21-19 0zm27-36l5-30 13 0c7 0 12 3 12 9-1 17-9 20-18 21l-12 0z"/><path stroke="#fff" stroke-linejoin="round" stroke-width="2" d="m116 104l16-81 19 0-4 21 18 0c16 1 22 9 20 19l-7 41-20 0 7-37c1-5 1-8-6-8l-15 0-9 45-19 0z"/><use width="100%" height="100%" x="0" y="0" transform="translate(134)" xlink:href="#b"/></g></svg>