<svg xmlns="http://www.w3.org/2000/svg" width="48" height="48" fill="#b8bb26" version="1.1" viewBox="0 0 48 48"><g fill="#f36f24" transform="matrix(2.99999869 0 0 2.99999869 -1682.999844 -902.999594)"><ellipse cx="323.063" cy="97.188" fill="#f36f24" stroke-width="1.696" color="#000" enable-background="new" overflow="visible" rx="2" ry="3.236" transform="matrix(1.0000007 0 0 .61803426 241.93747 252.93479)"/><path fill="#f36f24" stroke-width="1.333" d="m563.0002 303l0 1c0 .55016.45347 1 1 1 4.97056 0 9 4.02944 9 9 0 .55016.45347 1 1 1l1 0 0-1c0-6.07513-4.92487-11-11-11l-1 0zm0 4l0 1c0 .55016.45347 1 1 1 2.76143 0 5 2.23857 5 5 0 .55016.45347 1 1 1l1 0 0-1c0-3.866-3.134-7-7-7l-1 0z" color="#000" enable-background="new" overflow="visible"/></g></svg>