<svg xmlns="http://www.w3.org/2000/svg" width="48" height="48" fill="#b8bb26" version="1.1" viewBox="0 0 48 48"><path d="M12 6C11.07 6 10.239453 6.429844 9.689453 7.089844L6.919922 10.449219C6.339922 11.149219 6 12.03 6 13L6 38C6 40.21 7.79 42 10 42L38 42C40.21 42 42 40.21 42 38L42 13C42 12.03 41.659844 11.149219 41.089844 10.449219L38.320313 7.089844C37.760313 6.429844 36.93 6 36 6L12 6zM11.880859 8L35.880859 8 37.75 10 10.25 10 11.880859 8z"/><text x="23.878" y="35.872" fill="#fff" font-family="Roboto" font-size="12.5" font-weight="500" letter-spacing="0" line-height="120%" text-anchor="middle" word-spacing="0" xml:space="preserve"><tspan x="23.878" y="35.872">xz</tspan></text><text x="24.47" y="23.872" fill="#fff" font-family="Roboto" font-size="12.5" font-weight="500" letter-spacing="0" line-height="120%" text-anchor="middle" word-spacing="0" xml:space="preserve"><tspan x="24.47" y="23.872">tar.</tspan></text></svg>