<svg xmlns="http://www.w3.org/2000/svg" xmlns:xlink="http://www.w3.org/1999/xlink" width="2072" height="2072" version="1.1"><defs><linearGradient id="a"><stop offset="0" stop-color="#32691d"/><stop offset=".02" stop-color="#01d200" stop-opacity="0"/><stop offset="1" stop-color="#fff" stop-opacity="0"/></linearGradient><linearGradient id="b"><stop offset="0" stop-color="#ebebec"/><stop offset=".005" stop-color="#d3d3d3" stop-opacity="0"/><stop offset="1" stop-color="#fff" stop-opacity="0"/></linearGradient><linearGradient id="c"><stop offset="0" stop-color="#cbf595"/><stop offset=".018" stop-color="#01da00" stop-opacity="0"/><stop offset="1" stop-color="#fff" stop-opacity="0"/></linearGradient><linearGradient id="d"><stop offset="0" stop-color="#321e1d"/><stop offset=".015" stop-color="#555548" stop-opacity="0"/><stop offset="1" stop-color="#fff" stop-opacity="0"/></linearGradient><linearGradient id="e"><stop offset="0" stop-color="#321e1d"/><stop offset=".02" stop-color="#5a5bd7" stop-opacity="0"/><stop offset="1" stop-color="#fff" stop-opacity="0"/></linearGradient><linearGradient id="f"><stop offset="0" stop-color="#f6b1b2"/><stop offset=".028" stop-color="#c51f1f" stop-opacity="0"/><stop offset="1" stop-color="#fff" stop-opacity="0"/></linearGradient><linearGradient id="g"><stop offset="0" stop-color="#321e1d"/><stop offset=".02" stop-color="#555548" stop-opacity="0"/><stop offset="1" stop-color="#fff" stop-opacity="0"/></linearGradient><linearGradient id="h"><stop offset="0" stop-color="#cbcaf2"/><stop offset=".026" stop-color="#5555d2" stop-opacity="0"/><stop offset="1" stop-color="#fff" stop-opacity="0"/></linearGradient><linearGradient id="i"><stop offset="0" stop-color="#848484"/><stop offset="1" stop-color="#d2d2d2"/></linearGradient><linearGradient id="j"><stop offset="0" stop-color="#01a300"/><stop offset="1" stop-color="#01df00"/></linearGradient><linearGradient id="k"><stop offset="0" stop-color="#b40e0e"/><stop offset="1" stop-color="#ff5959"/></linearGradient><linearGradient id="l"><stop offset="0" stop-color="#1011a1"/><stop offset="1" stop-color="#6969e1"/></linearGradient><linearGradient id="m" x1="-1527.351" x2="-1086.116" y1="1387.521" y2="454.14" gradientTransform="translate(2104 48)" gradientUnits="userSpaceOnUse" xlink:href="#l"/><linearGradient id="n" x1="-933.381" x2="-316.784" y1="680.414" y2="1721.275" gradientTransform="translate(2104 48)" gradientUnits="userSpaceOnUse" xlink:href="#k"/><linearGradient id="o" x1="-678.823" x2="-1549.978" y1="1794.814" y2="1721.275" gradientTransform="translate(2104 48)" gradientUnits="userSpaceOnUse" xlink:href="#j"/><linearGradient id="p" x1="-984.293" x2="-995.606" y1="1472.373" y2="1093.364" gradientTransform="translate(2104 48)" gradientUnits="userSpaceOnUse" xlink:href="#i"/><filter id="q"><feGaussianBlur stdDeviation="9.077"/></filter><linearGradient id="r" x1="-1238.046" x2="-555.824" y1="919.714" y2="917.513" gradientTransform="matrix(1.9188939 .98349385 -.45611308 .88992183 3476.0418 1285.266)" gradientUnits="userSpaceOnUse" xlink:href="#h"/><linearGradient id="s" x1="-1238.046" x2="-552.84" y1="919.714" y2="913.406" gradientTransform="matrix(-1.9407023 .93972781 -.43581582 -.90003588 -412.21511 3168.6506)" gradientUnits="userSpaceOnUse" xlink:href="#g"/><linearGradient id="t" x1="-1238.046" x2="-555.837" y1="919.714" y2="915.3" gradientTransform="matrix(.02700295 -2.1560608 .90368745 .01314507 114.37039 -755.42907)" gradientUnits="userSpaceOnUse" xlink:href="#g"/><linearGradient id="u" x1="-1238.046" x2="-554.897" y1="919.714" y2="917.618" gradientTransform="matrix(3.1362513 .00261809 .06431073 .7601511 4936.1356 68.133286)" gradientUnits="userSpaceOnUse" xlink:href="#f"/><linearGradient id="v" x1="-1229.327" x2="-555.824" y1="918.444" y2="917.513" gradientTransform="matrix(-2.1510215 -.07025797 -.03821188 -.48210687 -1498.469 1058.0104)" gradientUnits="userSpaceOnUse" xlink:href="#e"/><linearGradient id="w" x1="-1237.111" x2="-555.824" y1="920.418" y2="917.513" gradientTransform="matrix(-1.3798164 -1.6569612 .7684458 -.63991489 -2195.6367 413.8935)" gradientUnits="userSpaceOnUse" xlink:href="#d"/><linearGradient id="x"><stop offset="0" stop-color="#321e1d"/><stop offset=".017" stop-color="#555548" stop-opacity="0"/><stop offset="1" stop-color="#fff" stop-opacity="0"/></linearGradient><linearGradient id="y" x1="-1242.233" x2="-551.125" y1="915.736" y2="910.646" gradientTransform="matrix(.85312044 -1.9803029 .91840135 .39565006 2182.2918 -885.93458)" gradientUnits="userSpaceOnUse" xlink:href="#x"/><linearGradient id="z" x1="-1238.046" x2="-555.867" y1="919.714" y2="915.48" gradientTransform="matrix(1.3829904 1.654313 -.7672176 .6413869 2529.8389 3432.8719)" gradientUnits="userSpaceOnUse" xlink:href="#c"/><linearGradient id="A" x1="-1242.558" x2="-866.868" y1="918.099" y2="917.187" gradientTransform="matrix(1.3829904 1.654313 -.7672176 .6413869 2930.535 3096.9376)" gradientUnits="userSpaceOnUse" xlink:href="#b"/><linearGradient id="B" x1="-1238.046" x2="-555.824" y1="919.714" y2="917.513" gradientTransform="matrix(-.83179183 1.989334 -.83312221 -.35033011 1447.5752 4603.6836)" gradientUnits="userSpaceOnUse" xlink:href="#a"/></defs><g><path fill="none" stroke="#3a393b" stroke-width="22.5" d="m1971.5575 1939.9137l-1797.08691-.1258c-11.0291-1.2221-8.5403-6.713-5.9958-12.2215L1069.3546 128.0808c3.3139-5.2772 6.2883-4.4372 9.0861-.4108l900.8561 1799.4363c4.5781 9.1667 1.5811 13.1503-7.7393 12.8074z" filter="url(#q)" opacity=".54"/><path fill="url(#m)" stroke="#000" d="M1143.3083 1084.3217L158.69119 1926.0618 1060.5107 124.10214 1143.3083 1084.3217z"/><path fill="url(#r)" d="m1060.5637 125.61959c13.4152 80.71591 11.94 94.79031-18.0349 140.07316L245.92029 1844.832 161.31739 1921.7588 1060.5637 125.61959z"/><path fill="url(#v)" d="m1147.188 1083.1536l-50.1671 40.0537-52.7887-888.7261c-4.0533-47.4341-6.2416-43.17076-6.5492-68.17004l25.1004-48.95208 84.4046 965.79452z"/><path fill="url(#n)" stroke="#000" d="M1188.9362 1609.9939L1060.9788 123.94021 1963.9529 1926.2261 1188.9362 1609.9939z"/><path fill="url(#u)" d="m1060.9071 120.07731c24.1749 30.04558 39.608 75.93991 48.9654 112.17843l179.3742 1415.10436-98.4276-38.4391-129.912-1488.84369z"/><path fill="url(#o)" stroke="#000" d="M743.40929 1423.8349L1964.8794 1926.0085 158.92799 1925.81 743.40929 1423.8349z"/><path fill="url(#s)" d="m1963.6891 1926.5277l-56.7139-24.6169-795.9854-1603.05217c-21.9472-24.37845-34.3449-39.62306-41.2192-51.95192-1.1264-32.3188-2.943-61.0813-9.9138-126.2626l903.8323 1805.88359z"/><path fill="url(#p)" stroke="#000" stroke-width="4" d="m745.26609 1425.0475l397.42281-339.0381 55.3298 523.5716-452.75261-184.5335z"/><path fill="url(#z)" d="m742.72829 1426.2554c17.4821 6.7504 20.8419 8.2827 35.806 14.4205-16.1593 13.8305-69.88 86.4885-91.4281 103.8499l-428.4072 362.6992-98.8195 18.3883 582.8488-499.3579z"/><path fill="url(#B)" d="m1962.8676 1925.4594l-68.0643-1.0486-1174.86681-479.6332 23.5048-18.7167 470.76241 191.9416 748.6639 307.4569z"/><path fill="url(#t)" d="m159.98259 1925.4405l50.2958-42.8864 1643.00831.1531 110.3276 42.727-1803.63171.01z"/><path fill="url(#y)" d="m1199.8469 1610.9874l-2.1608-22.3386 610.5884 235.1678c39.4555 18.7661 69.1058 27.2993 88.8249 43.327 12.6947 5.2081 34.7241 12.6345 46.1135 16.4736 13.9264 9.2219 11.5065 23.9583 20.3177 41.5431l-763.6837-314.1729z"/><path fill="none" stroke="#000" stroke-width="12.2" d="m1958.5868 1931.807l-1797.08691-.1258c-11.0291-1.2221-8.5403-6.713-5.9958-12.2215L1056.3839 119.97408c3.3139-5.27718 6.2883-4.43721 9.0861-.4108l900.8561 1799.43632c4.5781 9.1667 1.5811 13.1503-7.7393 12.8074z"/><path fill="url(#w)" d="m160.09059 1924.1505l25.5248-54.5322 52.0681-38.5691 899.32641-780.8749c4.7998 18.518 1.8803 6.9336 6.1315 33.989l-983.05081 839.9872z"/><path fill="url(#A)" d="m1141.0494 1090.571c-7.8922 86.6075-17.7158 81.5443-53.2471 118.0205l-263.40721 244.6992-74.9445-29.2367 391.59881-333.483z"/></g></svg>